<?xml version="1.0" encoding="UTF-8" standalone="no"?>
<svg
   xmlns:dc="http://purl.org/dc/elements/1.1/"
   xmlns:cc="http://creativecommons.org/ns#"
   xmlns:rdf="http://www.w3.org/1999/02/22-rdf-syntax-ns#"
   xmlns:svg="http://www.w3.org/2000/svg"
   xmlns="http://www.w3.org/2000/svg"
   xmlns:sodipodi="http://sodipodi.sourceforge.net/DTD/sodipodi-0.dtd"
   xmlns:inkscape="http://www.inkscape.org/namespaces/inkscape"
   aria-hidden="true"
   focusable="false"
   data-prefix="fab"
   data-icon="instagram-square"
   class="svg-inline--fa fa-instagram-square fa-w-14"
   role="img"
   viewBox="0 0 448 512"
   version="1.1"
   id="svg106"
   sodipodi:docname="instagram-square-brands.svg"
   inkscape:version="0.92.4 (fd57863, 2020-04-02)">
  <metadata
     id="metadata112">
    <rdf:RDF>
      <cc:Work
         rdf:about="">
        <dc:format>image/svg+xml</dc:format>
        <dc:type
           rdf:resource="http://purl.org/dc/dcmitype/StillImage" />
      </cc:Work>
    </rdf:RDF>
  </metadata>
  <defs
     id="defs110" />
  <sodipodi:namedview
     pagecolor="#ffffff"
     bordercolor="#666666"
     borderopacity="1"
     objecttolerance="10"
     gridtolerance="10"
     guidetolerance="10"
     inkscape:pageopacity="0"
     inkscape:pageshadow="2"
     inkscape:window-width="640"
     inkscape:window-height="480"
     id="namedview108"
     showgrid="false"
     inkscape:zoom="0.4609375"
     inkscape:cx="224"
     inkscape:cy="256"
     inkscape:window-x="0"
     inkscape:window-y="27"
     inkscape:window-maximized="0"
     inkscape:current-layer="svg106" />
  <path
     fill="currentColor"
     d="M224,202.66A53.34,53.34,0,1,0,277.36,256,53.38,53.38,0,0,0,224,202.66Zm124.71-41a54,54,0,0,0-30.41-30.41c-21-8.29-71-6.43-94.3-6.43s-73.25-1.93-94.31,6.43a54,54,0,0,0-30.41,30.41c-8.28,21-6.43,71.05-6.43,94.33S91,329.26,99.32,350.33a54,54,0,0,0,30.41,30.41c21,8.29,71,6.43,94.31,6.43s73.24,1.93,94.3-6.43a54,54,0,0,0,30.41-30.41c8.35-21,6.43-71.05,6.43-94.33S357.1,182.74,348.75,161.67ZM224,338a82,82,0,1,1,82-82A81.9,81.9,0,0,1,224,338Zm85.38-148.3a19.14,19.14,0,1,1,19.13-19.14A19.1,19.1,0,0,1,309.42,189.74ZM400,32H48A48,48,0,0,0,0,80V432a48,48,0,0,0,48,48H400a48,48,0,0,0,48-48V80A48,48,0,0,0,400,32ZM382.88,322c-1.29,25.63-7.14,48.34-25.85,67s-41.4,24.63-67,25.85c-26.41,1.49-105.59,1.49-132,0-25.63-1.29-48.26-7.15-67-25.85s-24.63-41.42-25.85-67c-1.49-26.42-1.49-105.61,0-132,1.29-25.63,7.07-48.34,25.85-67s41.47-24.56,67-25.78c26.41-1.49,105.59-1.49,132,0,25.63,1.29,48.33,7.15,67,25.85s24.63,41.42,25.85,67.05C384.37,216.44,384.37,295.56,382.88,322Z"
     id="path104" />
  <path
     style="fill:#ffff00;stroke-width:2.16949153"
     d="M 28.962712,474.55707 C 19.453449,469.55277 10.698745,460.83135 5.9843627,451.66609 2.0041565,443.92815 1.8440678,436.35415 1.8440678,255.78305 1.8440678,75.211963 2.0041565,67.637949 5.9843627,59.900012 8.2615248,55.472972 12.898813,49.217891 16.289447,45.999833 30.121656,32.871655 21.2277,33.410169 224.21695,33.410169 c 202.98348,0 193.99634,-0.54396 208.00239,12.589664 3.43181,3.218058 8.04766,9.756099 10.25744,14.528981 3.8108,8.230944 4.02022,18.264563 4.06541,194.781546 0.0521,203.52757 0.59166,194.56219 -12.54203,208.40019 -3.21805,3.39063 -9.47313,8.02792 -13.90017,10.30508 -7.74235,3.98249 -15.22618,4.13698 -196.33898,4.05344 -167.239293,-0.0772 -189.017462,-0.46979 -194.798298,-3.512 z M 290.38644,415.36835 c 16.07578,-1.24941 29.38746,-3.60198 37.42826,-6.61467 23.72684,-8.88984 41.95001,-28.09741 50.44882,-53.17402 9.17193,-27.0628 9.02745,-173.13205 -0.19743,-199.59322 -9.22645,-26.46561 -27.5602,-44.80268 -54.05253,-54.06228 -26.30576,-9.194404 -174.74977,-8.758566 -201.18363,0.59068 -24.937541,8.82002 -42.683943,25.95138 -51.677442,49.88643 -11.64408,30.98924 -11.570319,175.96885 0.105338,207.0451 12.776118,34.00526 39.938944,52.35803 82.450644,55.70837 29.81232,2.34952 107.63123,2.47114 136.67797,0.2137 z"
     id="path126"
     inkscape:connector-curvature="0" />
  <path
     style="fill:#ffff00;stroke-width:2.16949153"
     d="M 155.95626,384.67827 C 122.68025,381.47476 103.46107,366.44313 97.298851,338.80141 93.63265,322.356 91.999422,228.47173 94.816775,196.12203 c 1.961533,-22.52292 3.39154,-29.14076 8.438245,-39.05084 8.00458,-15.71838 21.09139,-24.67889 41.16512,-28.18567 20.30443,-3.54708 158.74077,-1.97345 170.70942,1.94049 11.04598,3.61221 30.43221,22.99845 34.04444,34.04444 3.91365,11.96781 5.48758,150.40487 1.9408,170.70759 -5.47022,31.31307 -23.36657,45.57663 -61.81311,49.26563 -25.60879,2.45721 -107.15422,2.35607 -133.34543,-0.16531 z m 84.96746,-47.80912 c 24.9001,-5.28326 46.07926,-21.55807 56.91139,-43.73271 16.80418,-34.40013 9.81575,-71.72433 -18.30379,-97.75808 -26.11231,-24.17539 -60.38397,-28.94321 -93.16229,-12.96058 -15.97872,7.79119 -29.41822,21.80384 -37.69513,39.30271 -6.13554,12.97163 -6.87602,16.63983 -6.87602,34.06256 0,17.37567 0.74841,21.1075 6.79751,33.89479 8.7485,18.49359 19.21652,29.93661 35.15924,38.43399 20.39746,10.87173 35.96486,13.25639 57.16909,8.75732 z m 78.65366,-148.60324 c 4.58195,-1.75826 9.85991,-12.10106 9.85991,-19.32167 0,-8.47629 -10.84555,-18.38153 -20.12648,-18.38153 -17.17959,0 -25.92206,21.31748 -14.0132,34.16949 4.53059,4.88939 16.28774,6.60054 24.27977,3.53371 z"
     id="path130"
     inkscape:connector-curvature="0" />
  <path
     style="fill:#ffff00;stroke-width:2.16949153"
     d="m 214.15664,307.48364 c -3.14672,-0.52718 -10.86598,-4.07717 -17.1539,-7.88887 -44.34703,-26.88291 -24.82536,-95.1047 27.21421,-95.1047 45.06847,0 68.42143,54.28486 37.31378,86.73733 -12.14987,12.67512 -30.71791,19.04667 -47.37409,16.25624 z"
     id="path132"
     inkscape:connector-curvature="0" />
</svg>
